# xmcd CD database file
#
# Track frame offsets:
#	150
#	10927
#	29105
#	36622
#	50090
#	60132
#	74550
#	83845
#	101380
#	115572
#	132327
#
# Disc length: 1992 seconds
#
# Revision: 0
# Processed by: cddbd v1.5.2PL0 Copyright (c) Steve Scherf et al.
# Submitted via: CDex 1.51
#
DISCID=9507c60b
DTITLE=Rita Engebretsen og Helge Borglund - Frem fra Glemselen kapittel 10
DYEAR=1981
DGENRE=Schillingsviser
TTITLE0=Rita Engebretsen - Månen yndig
TTITLE1=Helge Borglund - Astri, mi Astri
TTITLE2=Rita Engebretsen - Hvis pappa ville gi meg en femøring
TTITLE3=Helge Borglund - En fattig liten dreng
TTITLE4=Rita Engebretsen - Hist ved strandens åpne bredd
TTITLE5=Helge Borglund - Det lysnet i skogen
TTITLE6=Rita Engebretsen og Helge Borglund - Soldatens lengsel
TTITLE7=Rita Engebretsen - Amerikabåten
TTITLE8=Helge Borglund - Fjerne syd,du skjønne Spanien
TTITLE9=Rita Engebretsen - Ved moderens båre
TTITLE10=Rita Engebretsen og Helge Borglund - Gullgraversangen
EXTD=YEAR: 1981
EXTT0=
EXTT1=
EXTT2=
EXTT3=
EXTT4=
EXTT5=
EXTT6=
EXTT7=
EXTT8=
EXTT9=
EXTT10=
PLAYORDER=
